General

Format                           : MPEG-4
Format profile                   : Base Media
Codec ID                         : isom
File size                        : 100 MiB
Duration                         : 3mn 22s
Overall bit rate                 : 4 156 Kbps
Encoded date                     : UTC 2012-07-01 23:24:00
Tagged date                      : UTC 2012-07-01 23:24:00

Video
ID                               : 1
Format                           : AVC
Format/Info                      : Advanced Video Codec
Format profile                   : High@L3.0
Format settings, CABAC           : Yes
Format settings, ReFrames        : 2 frames
Format settings, GOP             : M=2, N=21
Codec ID                         : avc1
Codec ID/Info                    : Advanced Video Coding
Duration                         : 3mn 22s
Bit rate mode                    : Variable
Bit rate                         : 4 174 Kbps
Maximum bit rate                 : 6 831 Kbps
Width                            : 720 pixels
Height                           : 480 pixels
Display aspect ratio             : 16:9
Original display aspect ratio    : 16:9
Frame rate mode                  : Constant
Frame rate                       : 29.970 fps
Standard                         : NTSC
Color space                      : YUV
Chroma subsampling               : 4:2:0
Bit depth                        : 8 bits
Scan type                        : Progressive
Bits/(Pixel*Frame)               : 0.403
Stream size                      : 98.3 MiB (98%)


Audio
ID                               : 2
Format                           : AAC
Format/Info                      : Advanced Audio Codec
Format profile                   : LC
Codec ID                         : 40
Duration                         : 3mn 21s
Bit rate mode                    : Variable
Bit rate                         : 68.9 Kbps
Maximum bit rate                 : 78.2 Kbps
Channel(s)                       : 2 channels
Channel positions                : Front: L R
Sampling rate                    : 44.1 KHz
Compression mode                 : Lossy
Stream size                      : 1.66 MiB (2%)